Brake.2012.BRRip.XviD-RLF
~~~~~~~~~~~~~~~~~~~~~~~~~                                            

GENERAL:

Complete name                    : rlf-brake.avi
Format                           : AVI
Format/Info                      : Audio Video Interleave
File size                        : 723 MiB
Duration                         : 1h 31mn
Overall bit rate                 : 1 110 Kbps
Language                         : English
Subs                             : Polish, English (Custom)
Encoder                          : Ralf

Video:

Format                           : MPEG-4 Visual
Format profile                   : Advanced Simple@L5
Format settings, BVOP            : 2
Format settings, QPel            : No
Format settings, GMC             : No warppoints
Format settings, Matrix          : H.263
Muxing mode                      : Packed bitstream
Codec ID                         : XVID
Duration                         : 1h 31mn
Bit rate                         : 969 Kbps
Width                            : 688 pixels
Height                           : 384 pixels
Display aspect ratio             : 16:9
Frame rate                       : 23.976 fps
Color space                      : YUV
Chroma subsampling               : 4:2:0
Bit depth                        : 8 bits
Scan type                        : Progressive
Bits/(Pixel Frame)               : 0.153
Stream size                      : 632 MiB (87%)      
Stream size                      : Xvid 64

Audio:

Format                           : MPEG Audio
Codec ID/Hint                    : MP3
Duration                         : 1h 31mn
Bit rate mode                    : Constant
Bit rate                         : 128 Kbps
Channel(s)                       : 2 channels
Sampling rate                    : 48.0 KHz
Stream size                      : 83.5 MiB (12%)
Alignment                        : Split accross interleaves
Interleave, duration             : 24 ms (0.58 video frame)
Interleave, preload duration     : 470 ms
                   
MOVIE INFO:

A Secret Service Agent is held captive in the trunk of a car and endures 
mental and physical torture as terrorists attempt to extract information 
for their plot against the President of the United States. 
                                           
http://www.imdb.com/title/tt1990181/ 
http://www.filmweb.pl/film/Brake-2012-643843
                                               
SOURCE:

HAiDEAF's 720p.BluRay.x264 (THX)

SCREENS:
 
http://image.bayimg.com/dapnnaada.jpg 
http://image.bayimg.com/dapnoaada.jpg 
http://image.bayimg.com/dapnpaada.jpg 
http://image.bayimg.com/eapncaada.jpg